<svg viewBox="0 0 200 90" fill="none" xmlns="http://www.w3.org/2000/svg" class="vehicle-illustration-svg">
  <defs>
    <linearGradient id="magicWhite" x1="0" y1="24" x2="0" y2="72" gradientUnits="userSpaceOnUse">
      <stop offset="0%" stop-color="#ffffff"/>
      <stop offset="70%" stop-color="#f1f5f9"/>
      <stop offset="100%" stop-color="#cbd5e1"/>
    </linearGradient>
  </defs>
  <!-- Ground Shadow -->
  <ellipse cx="100" cy="80" rx="84" ry="4" fill="#0f172a" opacity="0.2"/>
  <!-- Minivan Body Contour -->
  <path d="M 28 34 C 28 28 35 25 44 25 L 140 25 C 152 25 161 31 165 44 L 169 60 C 170 66 169 72 165 73 L 150 73 A 12 12 0 0 1 126 73 L 74 73 A 12 12 0 0 1 50 73 L 28 73 Z" fill="url(#magicWhite)" stroke="#94a3b8" stroke-width="0.8"/>
  <!-- Dark Rocker Panel Skirt -->
  <rect x="28" y="68" width="138" height="4" fill="#334155"/>
  <!-- Slanted Front Windshield -->
  <path d="M 126 28 L 154 32 L 160 50 L 126 50 Z" fill="#294354"/>
  <!-- Side Passenger Windows -->
  <rect x="80" y="29" width="41" height="21" rx="1.5" fill="#294354"/>
  <rect x="34" y="29" width="41" height="21" rx="1.5" fill="#294354"/>
  <!-- Sliding Door Rail & Handle -->
  <line x1="66" y1="56" x2="126" y2="56" stroke="#94a3b8" stroke-width="1.2"/>
  <rect x="116" y="52" width="6" height="2" rx="0.8" fill="#334155"/>
  <!-- Headlamp & Signal -->
  <rect x="166" y="52" width="4" height="9" rx="1.5" fill="#fef08a" stroke="#cbd5e1" stroke-width="0.6"/>
  <rect x="166" y="61" width="4" height="3" rx="0.8" fill="#f59e0b"/>
  <!-- Wheels -->
  <g>
    <circle cx="62" cy="73" r="12" fill="#1e293b"/>
    <circle cx="62" cy="73" r="7.5" fill="#64748b"/>
    <circle cx="62" cy="73" r="3" fill="#cbd5e1"/>
  </g>
  <g>
    <circle cx="138" cy="73" r="12" fill="#1e293b"/>
    <circle cx="138" cy="73" r="7.5" fill="#64748b"/>
    <circle cx="138" cy="73" r="3" fill="#cbd5e1"/>
  </g>
</svg>