<svg viewBox="0 0 200 90" fill="none" xmlns="http://www.w3.org/2000/svg" class="vehicle-illustration-svg">
  <defs>
    <linearGradient id="erickGreen" x1="0" y1="40" x2="0" y2="72" gradientUnits="userSpaceOnUse">
      <stop offset="0%" stop-color="#10b981"/>
      <stop offset="100%" stop-color="#047857"/>
    </linearGradient>
  </defs>
  <!-- Ground Shadow -->
  <ellipse cx="100" cy="80" rx="74" ry="4" fill="#0f172a" opacity="0.2"/>
  <!-- Curved Yellow Weather Canopy -->
  <path d="M 40 25 C 40 19 60 16 100 16 C 140 16 156 20 156 26 L 154 32 L 40 32 Z" fill="#facc15" stroke="#ca8a04" stroke-width="0.8"/>
  <!-- Canopy Steel Tubular Frame -->
  <line x1="44" y1="32" x2="44" y2="60" stroke="#1f2937" stroke-width="1.8"/>
  <line x1="88" y1="32" x2="88" y2="60" stroke="#1f2937" stroke-width="1.8"/>
  <line x1="136" y1="32" x2="136" y2="52" stroke="#1f2937" stroke-width="1.8"/>
  <!-- Transparent Passenger Windscreen -->
  <polygon points="133,32 148,32 145,52 133,52" fill="#38bdf8" fill-opacity="0.3" stroke="#1f2937" stroke-width="1"/>
  <!-- Passenger Body Shell -->
  <path d="M 41 58 L 118 58 L 128 50 L 152 50 L 158 65 L 158 72 L 144 72 A 12 12 0 0 1 120 72 L 78 72 A 12 12 0 0 1 54 72 L 41 72 Z" fill="url(#erickGreen)"/>
  <!-- Passenger Cushions -->
  <rect x="50" y="48" width="34" height="10" rx="2" fill="#1e293b"/>
  <rect x="88" y="52" width="28" height="8" rx="1.5" fill="#1e293b"/>
  <!-- EV Battery Emblem on Side -->
  <circle cx="68" cy="65" r="4.5" fill="#fef08a"/>
  <path d="M 68 62 L 66 65 L 68 65 L 67 68 L 70 64 L 68 64 Z" fill="#047857"/>
  <!-- Front Bright Round LED -->
  <circle cx="158" cy="58" r="3.5" fill="#fef08a" stroke="#ca8a04" stroke-width="0.8"/>
  <!-- Wheels with Clean Wire Spokes -->
  <g>
    <circle cx="66" cy="74" r="11" fill="#111827"/>
    <circle cx="66" cy="74" r="7" fill="#9ca3af"/>
    <circle cx="66" cy="74" r="3" fill="#111827"/>
    <line x1="66" y1="67" x2="66" y2="81" stroke="#4b5563" stroke-width="0.8"/>
    <line x1="59" y1="74" x2="73" y2="74" stroke="#4b5563" stroke-width="0.8"/>
  </g>
  <g>
    <circle cx="150" cy="74" r="11" fill="#111827"/>
    <circle cx="150" cy="74" r="7" fill="#9ca3af"/>
    <circle cx="150" cy="74" r="3" fill="#111827"/>
    <line x1="150" y1="67" x2="150" y2="81" stroke="#4b5563" stroke-width="0.8"/>
    <line x1="143" y1="74" x2="157" y2="74" stroke="#4b5563" stroke-width="0.8"/>
  </g>
</svg>